<?xml version="1.0" encoding="UTF-8"?>
<svg version="1.1" xmlns="http://www.w3.org/2000/svg" width="215" height="215">
<path d="M0 0 C3.54166678 0.58245071 5.19663626 1.82472784 7.70794678 4.34718323 C8.42864853 5.06376099 9.14935028 5.78033875 9.89189148 6.51863098 C10.67232315 7.30984848 11.45275482 8.10106598 12.25683594 8.91625977 C13.08647354 9.74545929 13.91611115 10.57465881 14.77088928 11.4289856 C17.04258546 13.7024137 19.30748606 15.9823603 21.56954861 18.26536679 C23.93579134 20.65036295 26.31053213 23.0268665 28.68438721 25.40428162 C33.17749586 29.90671465 37.66290246 34.41674038 42.14559674 38.92953962 C47.24970269 44.06717731 52.36232952 49.19629934 57.47569227 54.32472146 C67.99330816 64.87369527 78.50016775 75.43332303 89 86 C92.3227619 84.42674859 94.47246264 82.7403052 97.0390625 80.0859375 C97.78414063 79.32539062 98.52921875 78.56484375 99.296875 77.78125 C100.06515625 76.9871875 100.8334375 76.193125 101.625 75.375 C103.15421728 73.79497816 104.68784633 72.21921026 106.2265625 70.6484375 C106.90283691 69.94895996 107.57911133 69.24948242 108.27587891 68.52880859 C110 67 110 67 112 67 C112.39257996 66.10100731 112.39257996 66.10100731 112.79309082 65.18385315 C114.08174048 62.85209392 115.25143943 61.72345649 117.31054688 60.05834961 C123.56722367 54.75593374 129.24925269 48.87413204 135.03125 43.06640625 C136.27513013 41.82065756 137.51923381 40.57513205 138.7635498 39.32981873 C142.01419015 36.07538764 145.26181428 32.81796319 148.50878906 29.55987549 C151.83214452 26.22623132 155.1583858 22.89546923 158.484375 19.56445312 C164.99238809 13.04576354 171.49721383 6.52390347 178 0 C178.99 0.33 179.98 0.66 181 1 C181.17711692 24.04331387 181.34280164 47.08668448 181.49477577 70.13017845 C181.56560395 80.82902019 181.64021117 91.52781093 181.72363281 102.2265625 C181.79631076 111.54866276 181.8619819 120.87078115 181.91914403 130.19298995 C181.94967438 135.13167007 181.98377765 140.0702686 182.02626419 145.00886154 C182.06610525 149.65279148 182.09661052 154.29668717 182.11981392 158.94072914 C182.13002188 160.64922456 182.14370292 162.35770313 182.16103554 164.06614113 C182.18411112 166.39077923 182.19492534 168.71515406 182.20254517 171.03988647 C182.2117631 172.34330175 182.22098103 173.64671703 182.23047829 174.98962975 C182 178 182 178 180 180 C178.06698608 180.28761292 178.06698608 180.28761292 175.67724609 180.33813477 C174.7822641 180.36057755 173.8872821 180.38302032 172.96517944 180.40614319 C171.9944046 180.41778 171.02362976 180.42941681 170.0234375 180.44140625 C169.02422272 180.45517807 168.02500793 180.46894989 166.99551392 180.48313904 C164.87548382 180.5064489 162.75537983 180.52369496 160.63525391 180.53540039 C157.40779309 180.56222742 154.18366029 180.63707744 150.95703125 180.71289062 C148.89585537 180.72955682 146.83465357 180.74332018 144.7734375 180.75390625 C143.81480804 180.78376114 142.85617859 180.81361603 141.86849976 180.84437561 C135.59512039 180.80369235 132.40332191 179.51757014 127.96356201 175.08430481 C127.31558655 174.39648422 126.66761108 173.70866364 126 173 C124.54301701 171.5819227 123.0838613 170.16607511 121.62280273 168.75219727 C120.05704874 167.19295784 118.49409289 165.63090476 116.93359375 164.06640625 C116.09586929 163.22963852 115.25814484 162.39287079 114.39503479 161.53074646 C112.63493065 159.77131896 110.87607323 158.01064347 109.1184082 156.2487793 C106.44529028 153.57030589 103.76687749 150.89721127 101.08789062 148.22460938 C99.36947097 146.50552885 97.65136158 144.78613811 95.93359375 143.06640625 C95.14174179 142.27657852 94.34988983 141.48675079 93.53404236 140.67298889 C90.08176527 137.20628805 86.7067909 133.72071 83.51318359 130.01318359 C79.50889695 125.36663539 75.19651751 121.05286553 70.85546875 116.72265625 C70.00447098 115.87070175 69.15347321 115.01874725 68.27668762 114.14097595 C66.49208294 112.355695 64.70623176 110.57165928 62.91918945 108.78881836 C60.17477838 106.04980339 57.43579568 103.30544048 54.69726562 100.56054688 C52.95865423 98.82259558 51.21973305 97.08495414 49.48046875 95.34765625 C48.65967331 94.52483658 47.83887787 93.70201691 46.99320984 92.85426331 C46.23514542 92.09935104 45.47708099 91.34443878 44.69604492 90.56665039 C44.02876877 89.90016983 43.36149261 89.23368927 42.67399597 88.54701233 C41.06608828 86.91695628 41.06608828 86.91695628 39 86 C39.33 104.15 39.66 122.3 40 141 C53.13357019 140.76328643 53.13357019 140.76328643 66.265625 140.45947266 C67.92705966 140.44192897 69.58852036 140.42664438 71.25 140.4140625 C72.51650391 140.3680188 72.51650391 140.3680188 73.80859375 140.32104492 C80.56686601 140.31515108 84.10378608 142.47621357 89 147 C89.59490234 147.54092285 90.18980469 148.0818457 90.80273438 148.63916016 C92.61215641 150.33486851 94.37289652 152.06942261 96.125 153.82421875 C96.75736572 154.45229935 97.38973145 155.08037994 98.04125977 155.72749329 C99.36124977 157.0417898 100.67869456 158.35864725 101.99365234 159.67797852 C104.01403761 161.70155981 106.04750765 163.71134839 108.08203125 165.72070312 C109.36799642 167.0043985 110.65318176 168.28887565 111.9375 169.57421875 C112.54674316 170.17425217 113.15598633 170.77428558 113.78369141 171.39250183 C118 175.65614899 118 175.65614899 118 179 C87.45765881 179.62690238 56.92386567 180.10377714 26.375 180.125 C25.09659241 180.12749756 23.81818481 180.12999512 22.5010376 180.13256836 C18.90430888 180.13837919 15.30766683 180.13702187 11.7109375 180.1328125 C10.63459045 180.13479645 9.55824341 180.1367804 8.44927979 180.13882446 C7.47650085 180.13571259 6.50372192 180.13260071 5.50146484 180.12939453 C4.65127777 180.12859894 3.8010907 180.12780334 2.92514038 180.12698364 C1 180 1 180 0 179 C-0.09711942 176.69643567 -0.1218657 174.38982342 -0.12025452 172.08421326 C-0.12110894 171.35240296 -0.12196337 170.62059266 -0.12284368 169.8666063 C-0.12450066 167.39599121 -0.11897359 164.9254429 -0.11352539 162.45483398 C-0.11324354 160.69116213 -0.11340121 158.92749015 -0.1139679 157.16381836 C-0.11425595 152.36030157 -0.10835792 147.55680953 -0.10139394 142.75329852 C-0.09516174 137.73910315 -0.09455671 132.72490727 -0.09336853 127.71070862 C-0.09025482 118.2086324 -0.08204089 108.70656762 -0.07201904 99.20449644 C-0.06085914 88.38968661 -0.05534776 77.57487625 -0.05032361 66.7600621 C-0.03985831 44.50670167 -0.0222581 22.25335155 0 0 Z M131.3125 94.1875 C130.50232422 94.95642578 129.69214844 95.72535156 128.85742188 96.51757812 C127.71563477 97.64389648 127.71563477 97.64389648 126.55078125 98.79296875 C125.84606689 99.4789917 125.14135254 100.16501465 124.4152832 100.87182617 C122.75818601 102.92308371 122.75818601 102.92308371 123.05761719 105.51367188 C124.13985795 108.36899309 125.35972174 109.84796533 127.52734375 111.98828125 C128.59178711 113.04692383 128.59178711 113.04692383 129.67773438 114.12695312 C130.79631836 115.20879883 130.79631836 115.20879883 131.9375 116.3125 C133.0502832 117.42334961 133.0502832 117.42334961 134.18554688 118.55664062 C137.53953387 122.45127413 137.53953387 122.45127413 142 124 C142 111.46 142 98.92 142 86 C137.75291104 86 134.1849841 91.35211013 131.3125 94.1875 Z " fill="#FEFEFE" transform="translate(24,15)"/>
<path d="M0 0 C2 0 2 0 4.16796875 2.05078125 C4.6067334 2.50791504 5.04549805 2.96504883 5.49755859 3.43603516 C7.14814901 5.15421556 8.84486254 6.8172548 10.55078125 8.48046875 C11.80476385 9.71606836 13.05866883 10.95174673 14.3125 12.1875 C14.95767578 12.81591797 15.60285156 13.44433594 16.26757812 14.09179688 C16.87666016 14.69443359 17.48574219 15.29707031 18.11328125 15.91796875 C18.66798096 16.46219482 19.22268066 17.0064209 19.79418945 17.56713867 C21 19 21 19 21 21 C22.32 21.33 23.64 21.66 25 22 C24.67 23.32 24.34 24.64 24 26 C23.01 26 22.02 26 21 26 C20.34 26.66 19.68 27.32 19 28 C20.52708963 31.43595166 22.59927045 34.11912454 25 37 C24.67 37.66 24.34 38.32 24 39 C19.45768626 35.29198878 15.61498052 31.49662088 11.83984375 27.01953125 C9.32797916 24.26234655 6.51659935 21.95914852 3.6015625 19.640625 C1.76104341 17.75521521 1.61880974 16.49621555 1 14 C0.01 13.67 -0.98 13.34 -2 13 C-0.62845496 10.04590299 0.98863724 7.55991624 3 5 C1.68 3.68 0.36 2.36 -1 1 C-0.67 0.67 -0.34 0.34 0 0 Z " fill="#F3F3F2" transform="translate(143,119)"/>
<path d="M0 0 C2 0 2 0 4.25 2.125 C5.61125 3.548125 5.61125 3.548125 7 5 C8.10411768 6.0625509 9.20828412 7.12505115 10.3125 8.1875 C13 11 13 11 13 13 C12.2575 12.690625 11.515 12.38125 10.75 12.0625 C8.49307824 11.1905075 6.3549847 10.52332993 4 10 C3.34 11.65 2.68 13.3 2 15 C0.68 14.34 -0.64 13.68 -2 13 C-0.62845496 10.04590299 0.98863724 7.55991624 3 5 C1.68 3.68 0.36 2.36 -1 1 C-0.67 0.67 -0.34 0.34 0 0 Z " fill="#F4F4F4" transform="translate(143,119)"/>
<path d="M0 0 C0.33 0 0.66 0 1 0 C2.24313489 6.59946524 2.18398709 13.05440295 2.1875 19.75 C2.19974609 20.99394531 2.21199219 22.23789063 2.22460938 23.51953125 C2.22654297 24.70417969 2.22847656 25.88882813 2.23046875 27.109375 C2.23457764 28.19186523 2.23868652 29.27435547 2.24291992 30.38964844 C2 33 2 33 0 35 C-1.05692054 31.82923837 -1.12918539 29.55990104 -1.1328125 26.23046875 C-1.13474609 24.52600586 -1.13474609 24.52600586 -1.13671875 22.78710938 C-1.13285156 21.59923828 -1.12898438 20.41136719 -1.125 19.1875 C-1.12886719 18.01123047 -1.13273437 16.83496094 -1.13671875 15.62304688 C-1.13478516 13.9127832 -1.13478516 13.9127832 -1.1328125 12.16796875 C-1.13168457 11.12922607 -1.13055664 10.0904834 -1.12939453 9.02026367 C-0.99746932 5.94093021 -0.56918027 3.02649033 0 0 Z " fill="#F7F6F6" transform="translate(61,120)"/>
<path d="M0 0 C2 0 2 0 4.25 2.125 C5.1575 3.07375 6.065 4.0225 7 5 C8.10411768 6.0625509 9.20828412 7.12505115 10.3125 8.1875 C13 11 13 11 13 13 C9.15588253 11.43387807 6.84049791 8.97905879 4 6 C3.071875 5.071875 2.14375 4.14375 1.1875 3.1875 C0.465625 2.465625 -0.25625 1.74375 -1 1 C-0.67 0.67 -0.34 0.34 0 0 Z " fill="#EAEAE9" transform="translate(143,119)"/>
<path d="M0 0 C0.66 0.33 1.32 0.66 2 1 C0.515 3.475 0.515 3.475 -1 6 C-0.34 6.33 0.32 6.66 1 7 C0 9 0 9 -1.875 9.6875 C-4 10 -4 10 -7 9 C-7 8.34 -7 7.68 -7 7 C-6.34 7 -5.68 7 -5 7 C-4.731875 6.401875 -4.46375 5.80375 -4.1875 5.1875 C-3.01506533 3.02775192 -1.80630718 1.64209744 0 0 Z " fill="#F2F2F2" transform="translate(120,96)"/>
<path d="M0 0 C2.32590854 3.63423209 2.16265833 6.77088331 2 11 C0.68 10.67 -0.64 10.34 -2 10 C-2.33 8.02 -2.66 6.04 -3 4 C-2.01 4 -1.02 4 0 4 C0 2.68 0 1.36 0 0 Z " fill="#F5F4F4" transform="translate(203,180)"/>
<path d="M0 0 C3.79588866 0.54226981 5.47211993 2.20127563 8 5 C7.67 5.66 7.34 6.32 7 7 C6.4225 6.525625 5.845 6.05125 5.25 5.5625 C3.07417916 4.0515133 1.57397552 3.45963849 -1 3 C-0.67 2.01 -0.34 1.02 0 0 Z " fill="#EBEBEA" transform="translate(156,133)"/>
<path d="M0 0 C1.65 0.33 3.3 0.66 5 1 C3.62308038 3.75383923 1.63279958 4.51483101 -1 6 C-1.33 5.01 -1.66 4.02 -2 3 C-1.34 2.01 -0.68 1.02 0 0 Z " fill="#F6F6F4" transform="translate(161,141)"/>
<path d="M0 0 C0.99 0.33 1.98 0.66 3 1 C-0.465 3.97 -0.465 3.97 -4 7 C-4 4 -4 4 -2 1.8125 C-1.34 1.214375 -0.68 0.61625 0 0 Z " fill="#F7F7F7" transform="translate(196,21)"/>
<path d="M0 0 C0.33 0.66 0.66 1.32 1 2 C1.99 2.33 2.98 2.66 4 3 C3.34 4.32 2.68 5.64 2 7 C1.01 6.67 0.02 6.34 -1 6 C-1.042721 4.33388095 -1.04063832 2.66617115 -1 1 C-0.67 0.67 -0.34 0.34 0 0 Z " fill="#FBFBFB" transform="translate(156,137)"/>
</svg>
